<svg width="28" height="29" viewBox="0 0 28 29" fill="none" xmlns="http://www.w3.org/2000/svg">
<rect y="0.23584" width="28" height="28" rx="14" fill="#030543"/>
<path d="M17.3205 14.9442H14.7495V17.4928C14.7495 17.9032 14.4139 18.2358 14 18.2358C13.5861 18.2358 13.2505 17.9032 13.2505 17.4928V14.9442H10.6795C10.2934 14.9045 10 14.582 10 14.1972C10 13.8123 10.2934 13.4898 10.6795 13.4501H13.2424V10.9095C13.2824 10.5267 13.6078 10.2358 13.996 10.2358C14.3842 10.2358 14.7095 10.5267 14.7495 10.9095V13.4501H17.3205C17.7066 13.4898 18 13.8123 18 14.1972C18 14.582 17.7066 14.9045 17.3205 14.9442V14.9442Z" fill="white"/>
</svg>
