<svg width="14" height="15" viewBox="0 0 14 15" fill="none" xmlns="http://www.w3.org/2000/svg">
<g clip-path="url(#clip0_148_6)">
<path d="M12.75 2.66199H10.125V1.66199C10.125 1.59324 10.0688 1.53699 10 1.53699H9.125C9.05625 1.53699 9 1.59324 9 1.66199V2.66199H5V1.66199C5 1.59324 4.94375 1.53699 4.875 1.53699H4C3.93125 1.53699 3.875 1.59324 3.875 1.66199V2.66199H1.25C0.973438 2.66199 0.75 2.88542 0.75 3.16199V13.537C0.75 13.8136 0.973438 14.037 1.25 14.037H12.75C13.0266 14.037 13.25 13.8136 13.25 13.537V3.16199C13.25 2.88542 13.0266 2.66199 12.75 2.66199ZM12.125 12.912H1.875V6.97449H12.125V12.912ZM1.875 5.91199V3.78699H3.875V4.53699C3.875 4.60574 3.93125 4.66199 4 4.66199H4.875C4.94375 4.66199 5 4.60574 5 4.53699V3.78699H9V4.53699C9 4.60574 9.05625 4.66199 9.125 4.66199H10C10.0688 4.66199 10.125 4.60574 10.125 4.53699V3.78699H12.125V5.91199H1.875Z" fill="#9698EB" fill-opacity="0.25"/>
</g>
<defs>
<clipPath id="clip0_148_6">
<rect width="14" height="14" fill="white" transform="translate(0 0.785095)"/>
</clipPath>
</defs>
</svg>
