<svg width="24" height="25" viewBox="0 0 24 25" fill="none" xmlns="http://www.w3.org/2000/svg">
<path opacity="0.4" d="M22 9.32025V16.7803C22 19.0703 20.14 20.9203 17.85 20.9203H6.15C3.86 20.9203 2 19.0703 2 16.7803V9.32025H22Z" fill="#9698EB" fill-opacity="0.85"/>
<path d="M22 7.86028V9.32028H2V7.86028C2 5.57028 3.86 3.72028 6.15 3.72028H17.85C20.14 3.72028 22 5.57028 22 7.86028Z" fill="#9698EB" fill-opacity="0.85"/>
<path d="M8 17.5703H6C5.59 17.5703 5.25 17.2303 5.25 16.8203C5.25 16.4103 5.59 16.0703 6 16.0703H8C8.41 16.0703 8.75 16.4103 8.75 16.8203C8.75 17.2303 8.41 17.5703 8 17.5703Z" fill="#9698EB" fill-opacity="0.85"/>
<path d="M14.5 17.5703H10.5C10.09 17.5703 9.75 17.2303 9.75 16.8203C9.75 16.4103 10.09 16.0703 10.5 16.0703H14.5C14.91 16.0703 15.25 16.4103 15.25 16.8203C15.25 17.2303 14.91 17.5703 14.5 17.5703Z" fill="#9698EB" fill-opacity="0.85"/>
</svg>
