<svg width="30" height="30" viewBox="0 0 29 30" fill="none" xmlns="http://www.w3.org/2000/svg">
<path fill-rule="evenodd" clip-rule="evenodd" d="M4.76895 4.94083C5.22457 4.46894 5.96326 4.46894 6.41887 4.94083L14.9272 13.7531L23.4356 4.94083C23.8912 4.46894 24.6299 4.46894 25.0855 4.94083C25.5411 5.41271 25.5411 6.17778 25.0855 6.64967L16.5772 15.4619L25.0855 24.2742C25.5411 24.746 25.5411 25.5111 25.0855 25.983C24.6299 26.4549 23.8912 26.4549 23.4356 25.983L14.9272 17.1708L6.41887 25.983C5.96326 26.4549 5.22457 26.4549 4.76895 25.983C4.31334 25.5111 4.31334 24.746 4.76895 24.2742L13.2773 15.4619L4.76895 6.64967C4.31334 6.17778 4.31334 5.41271 4.76895 4.94083Z" fill="#242829"/>
</svg>
