<svg width="37" height="16" viewBox="0 0 37 16" fill="#fff" xmlns="http://www.w3.org/2000/svg">
<path fill-rule="evenodd" clip-rule="evenodd" d="M0 8.39551C0 8.1114 0.11193 7.83893 0.311165 7.63803C0.5104 7.43714 0.780621 7.32427 1.06238 7.32427H33.3711L28.8093 2.72653C28.6098 2.52538 28.4977 2.25256 28.4977 1.9681C28.4977 1.68363 28.6098 1.41081 28.8093 1.20966C29.0088 1.00851 29.2793 0.895508 29.5614 0.895508C29.8435 0.895508 30.1141 1.00851 30.3136 1.20966L36.6879 7.63707C36.7868 7.73658 36.8653 7.85479 36.9189 7.98494C36.9724 8.11508 37 8.2546 37 8.39551C37 8.53641 36.9724 8.67593 36.9189 8.80608C36.8653 8.93622 36.7868 9.05443 36.6879 9.15394L30.3136 15.5814C30.1141 15.7825 29.8435 15.8955 29.5614 15.8955C29.2793 15.8955 29.0088 15.7825 28.8093 15.5814C28.6098 15.3802 28.4977 15.1074 28.4977 14.8229C28.4977 14.5385 28.6098 14.2656 28.8093 14.0645L33.3711 9.46674H1.06238C0.780621 9.46674 0.5104 9.35388 0.311165 9.15299C0.11193 8.95209 0 8.67962 0 8.39551Z" fill="#242829"/>
</svg>
