<svg width="19" height="18" viewBox="0 0 19 18" fill="none" xmlns="http://www.w3.org/2000/svg">
<path d="M1.39735 14.1744C1.43564 13.8298 1.45478 13.6575 1.50691 13.4965C1.55316 13.3536 1.61851 13.2176 1.70118 13.0923C1.79436 12.951 1.91694 12.8284 2.16209 12.5832L13.1673 1.578C14.0878 0.657531 15.5802 0.657532 16.5007 1.57801C17.4211 2.49848 17.4211 3.99087 16.5007 4.91134L5.49542 15.9166C5.25027 16.1617 5.1277 16.2843 4.98639 16.3775C4.86102 16.4601 4.72506 16.5255 4.58219 16.5717C4.42115 16.6239 4.24887 16.643 3.90429 16.6813L1.08398 16.9947L1.39735 14.1744Z" stroke="#030543" stroke-width="1.66667" stroke-linecap="round" stroke-linejoin="round"/>
</svg>
