<svg width="18" height="20" viewBox="0 0 18 20" fill="none" xmlns="http://www.w3.org/2000/svg">
<path d="M12.3333 5.07801V4.41134C12.3333 3.47792 12.3333 3.01121 12.1517 2.65469C11.9919 2.34109 11.7369 2.08612 11.4233 1.92633C11.0668 1.74467 10.6001 1.74467 9.66667 1.74467H8.33333C7.39991 1.74467 6.9332 1.74467 6.57668 1.92633C6.26308 2.08612 6.00811 2.34109 5.84832 2.65469C5.66667 3.01121 5.66667 3.47792 5.66667 4.41134V5.07801M7.33333 9.66134V13.828M10.6667 9.66134V13.828M1.5 5.07801H16.5M14.8333 5.07801V14.4113C14.8333 15.8115 14.8333 16.5115 14.5608 17.0463C14.3212 17.5167 13.9387 17.8992 13.4683 18.1389C12.9335 18.4113 12.2335 18.4113 10.8333 18.4113H7.16667C5.76654 18.4113 5.06647 18.4113 4.53169 18.1389C4.06129 17.8992 3.67883 17.5167 3.43915 17.0463C3.16667 16.5115 3.16667 15.8115 3.16667 14.4113V5.07801" stroke="#030543" stroke-width="1.66667" stroke-linecap="round" stroke-linejoin="round"/>
</svg>
