<svg width="37" height="36" viewBox="0 0 37 36" fill="none" xmlns="http://www.w3.org/2000/svg">
<path d="M29.75 16.3125H27.3594V8.4375C27.3594 5.95195 25.3449 3.9375 22.8594 3.9375H14.1406C11.6551 3.9375 9.64062 5.95195 9.64062 8.4375V16.3125H7.25C6.62773 16.3125 6.125 16.8152 6.125 17.4375V30.9375C6.125 31.5598 6.62773 32.0625 7.25 32.0625H29.75C30.3723 32.0625 30.875 31.5598 30.875 30.9375V17.4375C30.875 16.8152 30.3723 16.3125 29.75 16.3125ZM19.4844 24.6445V26.5078C19.4844 26.6625 19.3578 26.7891 19.2031 26.7891H17.7969C17.6422 26.7891 17.5156 26.6625 17.5156 26.5078V24.6445C17.2254 24.4362 17.0088 24.1411 16.897 23.8018C16.7851 23.4625 16.7839 23.0965 16.8933 22.7564C17.0027 22.4163 17.2173 22.1198 17.506 21.9094C17.7947 21.699 18.1427 21.5856 18.5 21.5856C18.8573 21.5856 19.2053 21.699 19.494 21.9094C19.7827 22.1198 19.9973 22.4163 20.1067 22.7564C20.2161 23.0965 20.2149 23.4625 20.103 23.8018C19.9912 24.1411 19.7746 24.4362 19.4844 24.6445ZM24.8281 16.3125H12.1719V8.4375C12.1719 7.35117 13.0543 6.46875 14.1406 6.46875H22.8594C23.9457 6.46875 24.8281 7.35117 24.8281 8.4375V16.3125Z" fill="white"/>
</svg>
