<svg width="181" height="54" viewBox="0 0 181 54" fill="none" xmlns="http://www.w3.org/2000/svg">
<path d="M0 18.7512H17.1557V24.4372H5.92048V29.4784H15.9247V35.1644H5.92048V41.0849H17.1557V46.7709H0V18.7512Z" fill="#030543"/>
<path d="M33.9597 27.1142H39.6067V46.7709H33.9597V44.4457C33.4778 45.2534 32.6962 45.9112 31.615 46.4192C30.5468 46.9142 29.394 47.1617 28.1565 47.1617C26.4761 47.1617 24.9325 46.7058 23.5256 45.794C22.1188 44.8821 21.0115 43.6446 20.2039 42.0814C19.3963 40.5053 18.9924 38.7858 18.9924 36.923C18.9924 34.0833 19.8782 31.6734 21.6498 29.6934C23.4344 27.7134 25.6033 26.7234 28.1565 26.7234C29.381 26.7234 30.5338 26.9774 31.615 27.4854C32.6962 27.9934 33.4778 28.6447 33.9597 29.4394V27.1142ZM29.407 41.8079C30.358 41.8079 31.2437 41.5799 32.0644 41.124C32.8981 40.6681 33.5299 40.0819 33.9597 39.3655V34.5587C33.5299 33.8162 32.8981 33.2105 32.0644 32.7415C31.2437 32.2726 30.358 32.0381 29.407 32.0381C28.0262 32.0381 26.8669 32.5071 25.929 33.445C24.9911 34.3698 24.5221 35.5292 24.5221 36.923C24.5221 38.3168 24.9911 39.4827 25.929 40.4206C26.8669 41.3455 28.0262 41.8079 29.407 41.8079Z" fill="#030543"/>
<path d="M51.3304 47.1617C47.7612 47.1617 44.8237 46.3411 42.5181 44.6997L44.1985 40.7723C46.0482 42.1531 48.2627 42.8435 50.8419 42.8435C51.7147 42.8435 52.4116 42.6937 52.9327 42.3941C53.4667 42.0945 53.7338 41.7102 53.7338 41.2412C53.7338 40.8374 53.5319 40.5053 53.128 40.2447C52.7373 39.9712 52.2292 39.7562 51.604 39.5999C50.9787 39.4436 50.2883 39.2873 49.5328 39.131C48.7772 38.9616 48.0217 38.7467 47.2662 38.4862C46.5107 38.2126 45.8203 37.8804 45.195 37.4897C44.5697 37.0858 44.0552 36.5257 43.6514 35.8093C43.2606 35.0798 43.0587 34.2265 43.0456 33.2496C43.0196 31.3998 43.7491 29.8497 45.2341 28.5992C46.7191 27.3486 48.6144 26.7234 50.9201 26.7234C54.0334 26.7234 56.5279 27.4724 58.4037 28.9704L56.8015 33.0542C56.0199 32.468 55.0625 31.9795 53.9292 31.5887C52.8089 31.1979 51.7277 31.0025 50.6856 31.0025C49.9692 31.0025 49.3895 31.1523 48.9466 31.4519C48.5037 31.7515 48.2822 32.1228 48.2822 32.5657C48.2822 32.9044 48.4386 33.204 48.7512 33.4645C49.0638 33.712 49.4676 33.9139 49.9626 34.0702C50.4707 34.2265 51.0438 34.4024 51.6821 34.5978C52.3334 34.7802 52.9913 34.9625 53.6556 35.1449C54.32 35.3273 54.9713 35.5813 55.6096 35.9069C56.2609 36.2326 56.8406 36.6039 57.3486 37.0207C57.8566 37.4245 58.2669 37.9586 58.5796 38.6229C58.9052 39.2873 59.0746 40.0428 59.0876 40.8895C59.0876 42.7132 58.3581 44.2178 56.8992 45.4032C55.4533 46.5755 53.597 47.1617 51.3304 47.1617Z" fill="#030543"/>
<path d="M74.6216 27.1142H80.6984L69.7757 53.2972H63.738L67.3724 45.1687L59.8106 27.1142H65.9069L70.2642 38.6034L74.6216 27.1142Z" fill="#030543"/>
<path d="M94.4737 26.7234C96.1541 26.7234 97.6913 27.1793 99.0851 28.0911C100.492 28.9899 101.593 30.2209 102.387 31.7841C103.195 33.3473 103.599 35.0602 103.599 36.923C103.599 38.7858 103.195 40.5053 102.387 42.0814C101.593 43.6446 100.492 44.8821 99.0851 45.794C97.6913 46.7058 96.1541 47.1617 94.4737 47.1617C93.2362 47.1617 92.0769 46.9142 90.9957 46.4192C89.9275 45.9112 89.1525 45.2534 88.6705 44.4457V53.2581H83.0236V27.1142H88.6705V29.4394C89.1525 28.6317 89.9275 27.9804 90.9957 27.4854C92.0769 26.9774 93.2362 26.7234 94.4737 26.7234ZM93.2427 41.8079C94.6105 41.8079 95.7568 41.3455 96.6817 40.4206C97.6066 39.4827 98.069 38.3168 98.069 36.923C98.069 35.5422 97.6001 34.3829 96.6622 33.445C95.7373 32.5071 94.5975 32.0381 93.2427 32.0381C92.2918 32.0381 91.3995 32.2726 90.5658 32.7415C89.7321 33.1975 89.1004 33.7902 88.6705 34.5196V39.3264C89.1004 40.0689 89.7256 40.6681 90.5463 41.124C91.367 41.5799 92.2658 41.8079 93.2427 41.8079Z" fill="#030543"/>
<path d="M120.676 27.1142H126.323V46.7709H120.676V44.4457C120.194 45.2534 119.413 45.9112 118.332 46.4192C117.263 46.9142 116.111 47.1617 114.873 47.1617C113.193 47.1617 111.649 46.7058 110.242 45.794C108.835 44.8821 107.728 43.6446 106.92 42.0814C106.113 40.5053 105.709 38.7858 105.709 36.923C105.709 34.0833 106.595 31.6734 108.366 29.6934C110.151 27.7134 112.32 26.7234 114.873 26.7234C116.098 26.7234 117.25 26.9774 118.332 27.4854C119.413 27.9934 120.194 28.6447 120.676 29.4394V27.1142ZM116.124 41.8079C117.074 41.8079 117.96 41.5799 118.781 41.124C119.615 40.6681 120.246 40.0819 120.676 39.3655V34.5587C120.246 33.8162 119.615 33.2105 118.781 32.7415C117.96 32.2726 117.074 32.0381 116.124 32.0381C114.743 32.0381 113.583 32.5071 112.646 33.445C111.708 34.3698 111.239 35.5292 111.239 36.923C111.239 38.3168 111.708 39.4827 112.646 40.4206C113.583 41.3455 114.743 41.8079 116.124 41.8079Z" fill="#030543"/>
<path d="M143.401 27.1142H149.478L138.555 53.2972H132.517L136.152 45.1687L128.59 27.1142H134.686L139.043 38.6034L143.401 27.1142Z" fill="#030543"/>
<path fill-rule="evenodd" clip-rule="evenodd" d="M165.886 7.26084C165.886 8.445 165.653 9.61757 165.2 10.7116C164.747 11.8056 164.083 12.7997 163.245 13.637C163.064 13.8185 162.875 13.9919 162.679 14.1567C161.972 14.7524 161.177 15.2368 160.32 15.5917C160.147 15.6635 159.971 15.7297 159.794 15.7904C158.876 16.1053 157.912 16.2703 156.939 16.2778C156.916 16.278 156.892 16.2781 156.869 16.2781V22.3106C156.892 22.3106 156.916 22.3106 156.939 22.3105C158.892 22.3014 160.824 21.9124 162.628 21.165C163.51 20.7999 164.353 20.3526 165.146 19.8304C165.169 19.815 165.192 19.7996 165.216 19.7841C165.735 19.4377 166.233 19.059 166.707 18.65C166.983 18.4111 167.252 18.1618 167.511 17.9027C167.604 17.8096 167.696 17.7155 167.786 17.6202C168.123 17.2654 168.441 16.8949 168.741 16.5101C168.987 16.1952 169.219 15.8707 169.439 15.5375C169.544 15.3769 169.647 15.2143 169.746 15.0498C170.139 14.4016 170.482 13.7232 170.773 13.0201C171.53 11.1942 171.919 9.23721 171.919 7.26084H165.886ZM165.216 24.067V30.0996C167.192 30.0996 169.149 29.7103 170.975 28.954C171.856 28.5888 172.699 28.1416 173.492 27.6193C174.342 27.0599 175.135 26.4144 175.857 25.6916C176.58 24.9688 177.226 24.1761 177.785 23.3264C178.307 22.5333 178.755 21.6907 179.12 20.8091C179.876 18.9832 180.265 17.0262 180.265 15.0498H174.233C174.233 16.234 174 17.4065 173.546 18.5005C173.093 19.5946 172.429 20.5886 171.592 21.4259C171.499 21.519 171.404 21.6099 171.307 21.6987C170.532 22.4083 169.639 22.9778 168.666 23.3806C167.572 23.8338 166.4 24.067 165.216 24.067ZM157.54 0C157.54 1.18416 157.306 2.35673 156.853 3.45075C156.4 4.54477 155.736 5.53883 154.899 6.37616C154.246 7.02923 153.497 7.57699 152.68 8.00144C152.45 8.12119 152.214 8.23113 151.973 8.33085C150.901 8.77509 149.753 9.00798 148.592 9.01698C148.569 9.01716 148.546 9.01725 148.522 9.01725V15.0498C148.546 15.0498 148.569 15.0497 148.592 15.0496C150.545 15.0406 152.477 14.6516 154.282 13.9042C155.163 13.539 156.006 13.0918 156.799 12.5695C156.822 12.5542 156.846 12.5387 156.869 12.5232C157.448 12.1375 158 11.7117 158.521 11.2485C158.741 11.0529 158.956 10.8506 159.164 10.6418C159.346 10.4606 159.522 10.2749 159.693 10.0851C160.05 9.68983 160.385 9.2764 160.698 8.84666C160.833 8.65969 160.965 8.46964 161.092 8.27665C161.309 7.94638 161.514 7.60752 161.705 7.26084C161.973 6.77499 162.214 6.27377 162.427 5.75931C163.183 3.93338 163.572 1.97637 163.572 0H157.54Z" fill="#CE00B4"/>
</svg>
